<svg xmlns="http://www.w3.org/2000/svg" viewBox="0 0 512 512">
  <rect width="512" height="512" rx="15%" fill="#fff"/>
  <path fill="#2563eb" d="M85.988 146.322a144 144 0 0 0-19.62 24.91 16 16 0 0 0-1.293 15.397l86.547 199.061a16 16 0 0 0 14.731 9.794h31.016a16 16 0 0 0 14.73-9.794l86.548-199.06a16 16 0 0 0-1.293-15.398 144 144 0 0 0-211.366-24.91zm239.675 23.519c-4.42 10.24-30.636 70.605-76.631 176.649h31.43c46.228-106.477 72.453-166.902 76.793-177.17a176 176 0 0 1-31.592.521zm72.633-49.388a16 16 0 0 0-16 16v240a16 16 0 0 0 16 16h56a16 16 0 0 0 16-16v-240a16 16 0 0 0-16-16h-56z"/>
  <path fill="#ef4444" d="M101.797 120.947a144 144 0 0 0-35.429 50.285 16 16 0 0 0-1.293 15.397l86.547 199.061a16 16 0 0 0 14.731 9.794h31.016a16 16 0 0 0 14.73-9.794l86.548-199.06a16 16 0 0 0-1.293-15.398 144 144 0 0 0-195.557-50.285zm-15.809 48.894A176 176 0 0 1 398.296 143.32c-4.42 10.24-30.636 70.605-76.631 176.649h31.43c46.228-106.477 72.453-166.902 76.793-177.17a144 144 0 0 1 19.408 29.328A176 176 0 0 1 85.988 146.322z"/>
</svg>
